<?xml version="1.0" encoding="utf-8"?>
<!-- Generator: Adobe Illustrator 23.0.1, SVG Export Plug-In . SVG Version: 6.00 Build 0)  -->
<svg version="1.1" id="Capa_1" xmlns="http://www.w3.org/2000/svg" xmlns:xlink="http://www.w3.org/1999/xlink" x="0px" y="0px"
	 viewBox="0 0 276 234" style="enable-background:new 0 0 276 234;" xml:space="preserve">
<style type="text/css">
	.st0{fill:#878787;}
	.st1{fill:#222147;}
	.st2{fill:#FFFFFF;}
	.st3{fill:#44BAC1;}
</style>
<g>
	<g>
		<path class="st0" d="M2.64,196.9v-8.67h1.91v8.67H2.64z"/>
		<path class="st0" d="M14.57,196.9l-4.2-5.51v5.51H8.5v-8.67h1.76l4.06,5.34v-5.34h1.88v8.67H14.57z"/>
		<path class="st0" d="M26.14,196.9l-4.2-5.51v5.51h-1.88v-8.67h1.76l4.06,5.34v-5.34h1.88v8.67H26.14z"/>
		<path class="st0" d="M40.1,194.31c-0.23,0.54-0.55,1.01-0.96,1.42c-0.41,0.41-0.9,0.73-1.46,0.97c-0.57,0.24-1.18,0.35-1.85,0.35
			c-0.67,0-1.28-0.12-1.84-0.35c-0.56-0.23-1.05-0.55-1.45-0.95c-0.41-0.4-0.73-0.87-0.95-1.41c-0.23-0.54-0.34-1.12-0.34-1.74
			v-0.02c0-0.62,0.12-1.2,0.35-1.74c0.23-0.54,0.55-1.02,0.96-1.42c0.41-0.41,0.9-0.73,1.46-0.97c0.56-0.24,1.18-0.35,1.85-0.35
			c0.67,0,1.28,0.12,1.84,0.35c0.56,0.23,1.05,0.55,1.45,0.95c0.41,0.4,0.73,0.87,0.95,1.41c0.23,0.54,0.34,1.12,0.34,1.74v0.02
			C40.45,193.19,40.33,193.77,40.1,194.31z M38.46,192.57c0-0.37-0.06-0.72-0.19-1.05c-0.13-0.33-0.31-0.62-0.55-0.87
			c-0.23-0.25-0.51-0.44-0.84-0.59c-0.32-0.14-0.67-0.22-1.05-0.22c-0.39,0-0.74,0.07-1.06,0.21c-0.32,0.14-0.59,0.33-0.82,0.58
			c-0.23,0.25-0.4,0.53-0.53,0.86c-0.13,0.33-0.19,0.68-0.19,1.05v0.02c0,0.37,0.06,0.72,0.19,1.05c0.13,0.33,0.31,0.62,0.54,0.87
			c0.23,0.25,0.51,0.44,0.83,0.59c0.32,0.14,0.67,0.22,1.06,0.22c0.38,0,0.73-0.07,1.05-0.21c0.32-0.14,0.6-0.33,0.82-0.58
			c0.23-0.25,0.4-0.53,0.53-0.86c0.13-0.33,0.19-0.67,0.19-1.05V192.57z"/>
		<path class="st0" d="M48.37,196.96h-1.68l-3.5-8.73h2.1l2.27,6.1l2.27-6.1h2.05L48.37,196.96z"/>
		<path class="st0" d="M61.44,196.9l-0.79-1.94h-3.66l-0.79,1.94h-1.94l3.71-8.73h1.76l3.71,8.73H61.44z M58.82,190.46l-1.15,2.81
			h2.3L58.82,190.46z"/>
		<path class="st0" d="M70.48,189.99v6.91h-1.91v-6.91h-2.64v-1.76h7.18v1.76H70.48z"/>
		<path class="st0" d="M76.45,196.9v-8.67h1.91v8.67H76.45z"/>
		<path class="st0" d="M90.78,194.31c-0.23,0.54-0.55,1.01-0.96,1.42c-0.41,0.41-0.9,0.73-1.46,0.97c-0.57,0.24-1.18,0.35-1.85,0.35
			c-0.67,0-1.28-0.12-1.84-0.35c-0.56-0.23-1.05-0.55-1.45-0.95c-0.41-0.4-0.73-0.87-0.95-1.41c-0.23-0.54-0.34-1.12-0.34-1.74
			v-0.02c0-0.62,0.12-1.2,0.35-1.74c0.23-0.54,0.55-1.02,0.96-1.42c0.41-0.41,0.9-0.73,1.46-0.97c0.57-0.24,1.18-0.35,1.85-0.35
			c0.67,0,1.28,0.12,1.84,0.35c0.56,0.23,1.05,0.55,1.45,0.95c0.41,0.4,0.73,0.87,0.95,1.41c0.23,0.54,0.34,1.12,0.34,1.74v0.02
			C91.13,193.19,91.02,193.77,90.78,194.31z M89.14,192.57c0-0.37-0.06-0.72-0.19-1.05c-0.13-0.33-0.31-0.62-0.54-0.87
			c-0.23-0.25-0.51-0.44-0.84-0.59c-0.32-0.14-0.67-0.22-1.05-0.22c-0.39,0-0.74,0.07-1.06,0.21c-0.32,0.14-0.59,0.33-0.82,0.58
			c-0.23,0.25-0.4,0.53-0.53,0.86c-0.13,0.33-0.19,0.68-0.19,1.05v0.02c0,0.37,0.06,0.72,0.19,1.05c0.13,0.33,0.31,0.62,0.54,0.87
			c0.23,0.25,0.51,0.44,0.83,0.59c0.32,0.14,0.67,0.22,1.06,0.22c0.38,0,0.73-0.07,1.05-0.21c0.32-0.14,0.6-0.33,0.82-0.58
			c0.23-0.25,0.4-0.53,0.53-0.86c0.13-0.33,0.19-0.67,0.19-1.05V192.57z"/>
		<path class="st0" d="M100.69,196.9l-4.2-5.51v5.51h-1.88v-8.67h1.76l4.06,5.34v-5.34h1.88v8.67H100.69z"/>
	</g>
	<g>
		<path class="st1" d="M52.29,134.33c5.73,5.77,12.55,8.64,20.37,8.64c3.85,0,7.49-0.71,11-2.09c3.51-1.38,6.54-3.4,9.17-6.04
			c2.63-2.6,4.72-5.67,6.28-9.14c1.55-3.47,2.36-7.25,2.36-11.26V2.63H28.03C13.39,2.63,1.52,14.5,1.52,29.14v84.26l42.6,0.52
			C44.12,121.78,46.89,128.56,52.29,134.33z"/>
		<path class="st1" d="M5.06,141.51c-1.59-3.92-2.68-7.99-3.54-12.13v51.35h41.6c-8.28-3.72-15.81-8.84-22.55-15.54
			C13.84,158.25,8.64,150.35,5.06,141.51z"/>
		<path class="st1" d="M173.02,83.09c2.23,0,4.4,0.44,6.6,0.64V2.63h-33.96v85.74C154.63,84.89,163.75,83.09,173.02,83.09z"/>
		<path class="st2" d="M98.61,157.63c0-10.13,1.88-19.69,5.59-28.67c3.71-8.96,9.09-16.97,16.08-24c7.31-7.28,15.51-12.77,24.7-16.4
			c0.23-0.09,0.46-0.11,0.69-0.2V2.63h-44.19v111.8c0,4.01-0.81,7.79-2.36,11.26c-1.55,3.48-3.64,6.54-6.28,9.14
			c-2.63,2.63-5.67,4.65-9.17,6.04c-3.51,1.38-7.15,2.09-11,2.09c-7.83,0-14.64-2.87-20.37-8.64c-5.4-5.77-8.17-12.55-8.17-20.41
			l-42.6-0.52v15.98c0.86,4.14,1.95,8.21,3.54,12.13c3.58,8.84,8.77,16.73,15.52,23.68c6.73,6.7,14.26,11.82,22.55,15.54h59.45
			C100.16,173.33,98.61,165.7,98.61,157.63z"/>
		<path class="st3" d="M197.86,83.09c-4.17,0-8.19,0.57-12.17,1.23c5.16,0.9,10.27,2.24,15.32,4.26c9.08,3.63,17.28,9.11,24.59,16.4
			l-24.13,24.1c-3.91-3.92-8.35-6.84-13.37-8.8c-2.8-1.1-5.63-1.82-8.49-2.3v62.77h-38.56c1.24,1.72,1.98,3.68,3.49,5.26
			c3.92,3.92,8.36,6.87,13.32,8.83c4.91,1.96,9.92,2.92,15.09,2.92c5.12,0,10.18-0.96,15.14-2.92c5.01-1.96,9.45-4.91,13.37-8.83
			l24.13,24.31c-7.31,7.28-15.46,12.74-24.49,16.32c-4.98,1.96-10.06,3.27-15.21,4.15c3.92,0.64,7.86,1.21,11.96,1.21
			c41.11,0,74.44-33.33,74.44-74.44C272.3,116.42,238.97,83.09,197.86,83.09z"/>
		<path class="st3" d="M157.88,120.27c-4.96,1.96-9.4,4.88-13.32,8.8c-0.22,0.23-0.29,0.54-0.51,0.77c-0.98,4.57-2.37,9-4.26,13.26
			c-1.9,4.29-4.15,8.29-6.69,12.04c-0.05,0.84-0.24,1.64-0.24,2.49c0,5.41,0.99,10.5,3.03,15.3c1.19,2.87,3.34,5.25,5.18,7.8h38.56
			v-62.77c-2.21-0.38-4.43-0.65-6.66-0.65C167.8,117.32,162.78,118.31,157.88,120.27z"/>
		<path class="st3" d="M133.1,155.14c2.54-3.75,4.79-7.76,6.69-12.04c1.89-4.26,3.28-8.69,4.26-13.26
			c-3.45,3.74-6.29,7.81-8.16,12.41C134.18,146.35,133.37,150.67,133.1,155.14z"/>
		<path class="st2" d="M185.69,84.32c-2-0.35-4.04-0.4-6.07-0.59v1.88C181.63,85.1,183.63,84.66,185.69,84.32z"/>
		<path class="st2" d="M127.48,180.73H102.6c-0.01,0-0.01,0.01-0.02,0.01c0.58,1.77,0.9,3.62,1.62,5.35
			c3.71,8.98,9.09,17.05,16.08,24.2c7.31,7.28,15.51,12.74,24.6,16.32c9.14,3.58,18.49,5.35,28.1,5.35c4.39,0,8.68-0.48,12.93-1.21
			C158.31,226.28,136.05,206.72,127.48,180.73z"/>
		<path class="st2" d="M145.66,88.37v16.16c9.26-9.12,20.96-15.63,33.96-18.92v-1.88c-2.2-0.2-4.38-0.64-6.6-0.64
			C163.75,83.09,154.63,84.89,145.66,88.37z"/>
		<path class="st2" d="M124.07,166.14c-6.08,6.11-13.32,10.91-21.48,14.59h24.88c-1.57-4.76-2.63-9.69-3.21-14.82
			C124.2,165.98,124.15,166.07,124.07,166.14z"/>
		<path class="st2" d="M102.57,180.73c0,0,0,0.01,0,0.01c0.01,0,0.01-0.01,0.02-0.01H102.57z"/>
		<path class="st2" d="M124.26,165.91c-0.32-2.79-0.85-5.51-0.85-8.38c0-20.76,8.53-39.5,22.24-53V88.37
			c-0.23,0.09-0.46,0.11-0.69,0.2c-9.19,3.63-17.39,9.11-24.7,16.4c-7,7.02-12.38,15.04-16.08,24c-3.71,8.98-5.59,18.54-5.59,28.67
			c0,8.06,1.55,15.7,3.97,23.1h0.03c8.16-3.68,15.4-8.49,21.48-14.59C124.15,166.07,124.2,165.98,124.26,165.91z"/>
		<path class="st2" d="M179.63,117.97c2.85,0.48,5.69,1.2,8.49,2.3c5.01,1.96,9.45,4.88,13.37,8.8l24.13-24.1
			c-7.31-7.28-15.51-12.77-24.59-16.4c-5.05-2.02-10.16-3.35-15.32-4.26c-2.06,0.34-4.06,0.78-6.07,1.29V117.97z"/>
		<path class="st2" d="M225.61,210.3l-24.13-24.31c-3.91,3.92-8.35,6.87-13.37,8.83c-4.96,1.96-10.02,2.92-15.14,2.92
			c-5.17,0-10.18-0.96-15.09-2.92c-4.96-1.96-9.4-4.91-13.32-8.83c-1.51-1.58-2.25-3.54-3.49-5.26h-13.59
			c8.58,25.99,30.83,45.55,58.42,50.03c5.15-0.88,10.23-2.19,15.21-4.15C210.15,223.04,218.3,217.58,225.61,210.3z"/>
		<path class="st2" d="M145.66,104.53v10.17c0,5.23-0.57,10.27-1.61,15.15c0.22-0.23,0.29-0.54,0.51-0.77
			c3.92-3.92,8.36-6.84,13.32-8.8c4.91-1.96,9.92-2.95,15.09-2.95c2.23,0,4.45,0.27,6.66,0.65V85.6
			C166.63,88.9,154.92,95.41,145.66,104.53z"/>
		<path class="st2" d="M132.86,157.63c0-0.85,0.19-1.65,0.24-2.49c-2.62,3.88-5.56,7.47-8.84,10.77c0.58,5.13,1.64,10.07,3.21,14.82
			h13.59c-1.83-2.55-3.99-4.93-5.18-7.8C133.86,168.13,132.86,163.04,132.86,157.63z"/>
		<path class="st2" d="M123.42,157.53c0,2.87,0.53,5.59,0.85,8.38c3.27-3.3,6.22-6.89,8.84-10.77c0.26-4.48,1.08-8.8,2.79-12.89
			c1.87-4.6,4.71-8.67,8.16-12.41c1.04-4.88,1.61-9.92,1.61-15.15v-10.17C131.95,118.03,123.42,136.77,123.42,157.53z"/>
	</g>
</g>
</svg>
